# xmcd CD database file
#
# Track frame offsets:
#	150
#	25650
#	46360
#	48632
#	69985
#	90580
#	111545
#	135007
#	151842
#	179222
#	206230
#	236557
#	258107
#	280402
#
# Disc length: 4049 seconds
#
# Revision: 1
# Processed by: cddbd v1.5.1PL2 Copyright (c) Steve Scherf et al.
# Submitted via: jetAudio 5
#
DISCID=c40fcf0e
DTITLE=????? - Rhythm Black
DYEAR=2003
DGENRE=
TTITLE0=???????????
TTITLE1=?????????
TTITLE2=Cyber Love Intro
TTITLE3=Cyber Love
TTITLE4=0??Tenderness
TTITLE5=????
TTITLE6=?????????? -Runaway Blood-
TTITLE7=Get The Groove
TTITLE8=????????
TTITLE9=Friendship
TTITLE10=??
TTITLE11=???????
TTITLE12=????????
TTITLE13=Flowin' (Maki's Scat Mix)
EXTD=YEAR: 2003
EXTT0=
EXTT1=
EXTT2=
EXTT3=
EXTT4=
EXTT5=
EXTT6=
EXTT7=
EXTT8=
EXTT9=
EXTT10=
EXTT11=
EXTT12=
EXTT13=
PLAYORDER=
